<svg xmlns="http://www.w3.org/2000/svg" viewBox="0 0 512 512" width="100%" height="100%">
  <!-- Best Selected Unique Icon: Dynamic 3D Silk Ribbon Helix Möbius Strip (থ্রিডি সিল্ক মবিয়াস স্ট্রিপ হেলিক্স) -->
  <defs>
    <filter id="neonBlur" x="-20%" y="-20%" width="140%" height="140%">
      <feGaussianBlur stdDeviation="10" result="blur" />
      <feMerge>
        <feMergeNode in="blur" />
        <feMergeNode in="SourceGraphic" />
      </feMerge>
    </filter>
    <linearGradient id="goldPurpleGrad" x1="0%" y1="0%" x2="100%" y2="100%">
      <stop offset="0%" stop-color="#FFD700" /> <!-- Gold -->
      <stop offset="40%" stop-color="#FF007F" /> <!-- Pink Red -->
      <stop offset="100%" stop-color="#7B1FA2" /> <!-- Deep Royal Purple -->
    </linearGradient>
    <linearGradient id="neonAqua" x1="100%" y1="100%" x2="0%" y2="0%">
      <stop offset="0%" stop-color="#00FFFF" />
      <stop offset="100%" stop-color="#4B0082" />
    </linearGradient>
  </defs>
  <rect x="16" y="16" width="480" height="480" rx="140" fill="#0A0A0E" stroke="#23232C" stroke-width="4" />
  
  <g filter="url(#neonBlur)">
    <!-- Möbius 3D twist paths constructed through highly aesthetic overlapping bezier strands -->
    <!-- Ribbon Wave 1 -->
    <path d="M 120,220 C 180,120 332,150 372,256 C 412,362 210,420 140,322 C 70,224 232,100 372,170" 
          fill="none" 
          stroke="url(#goldPurpleGrad)" 
          stroke-width="32" 
          stroke-linecap="round" 
          opacity="0.95" />
    <!-- Glowing Accent Inner Thread 2 -->
    <path d="M 140,240 C 190,140 312,170 352,256 C 392,342 230,390 170,312 C 110,234 222,120 342,190" 
          fill="none" 
          stroke="url(#neonAqua)" 
          stroke-width="14" 
          stroke-linecap="round" 
          opacity="0.85" />
  </g>
  <!-- Particles surrounding ribbon -->
  <circle cx="150" cy="150" r="10" fill="#00FFFF" filter="url(#neonBlur)" />
  <circle cx="360" cy="360" r="12" fill="#FF007F" filter="url(#neonBlur)" />
  <circle cx="270" cy="220" r="8" fill="#FFFFFF" filter="url(#neonBlur)" />
</svg>
